<mxfile host="app.diagrams.net" agent="Mozilla/5.0 (Windows NT 10.0; Win64; x64) AppleWebKit/537.36 (KHTML, like Gecko) Chrome/140.0.0.0 Safari/537.36" version="28.2.5">
  <diagram name="Page-1" id="AbbnWgtlG-M7LyE6tYor">
    <mxGraphModel dx="1489" dy="814" grid="1" gridSize="10" guides="1" tooltips="1" connect="1" arrows="1" fold="1" page="1" pageScale="1" pageWidth="850" pageHeight="1100" math="0" shadow="0">
      <root>
        <mxCell id="0" />
        <mxCell id="1" parent="0" />
        <mxCell id="1Cvh_RMkwMr6RXCInBIu-7" value="" style="edgeStyle=orthogonalEdgeStyle;rounded=0;orthogonalLoop=1;jettySize=auto;html=1;" edge="1" parent="1" source="1Cvh_RMkwMr6RXCInBIu-1" target="1Cvh_RMkwMr6RXCInBIu-2">
          <mxGeometry relative="1" as="geometry" />
        </mxCell>
        <mxCell id="1Cvh_RMkwMr6RXCInBIu-1" value="START" style="ellipse;whiteSpace=wrap;html=1;fillColor=light-dark(#FFFFFF,#B5739D);fontColor=light-dark(#000000,#000000);" vertex="1" parent="1">
          <mxGeometry x="220" y="20" width="120" height="80" as="geometry" />
        </mxCell>
        <mxCell id="1Cvh_RMkwMr6RXCInBIu-8" value="" style="edgeStyle=orthogonalEdgeStyle;rounded=0;orthogonalLoop=1;jettySize=auto;html=1;" edge="1" parent="1" source="1Cvh_RMkwMr6RXCInBIu-2" target="1Cvh_RMkwMr6RXCInBIu-3">
          <mxGeometry relative="1" as="geometry" />
        </mxCell>
        <mxCell id="1Cvh_RMkwMr6RXCInBIu-17" value="" style="edgeStyle=orthogonalEdgeStyle;rounded=0;orthogonalLoop=1;jettySize=auto;html=1;" edge="1" parent="1" source="1Cvh_RMkwMr6RXCInBIu-2" target="1Cvh_RMkwMr6RXCInBIu-16">
          <mxGeometry relative="1" as="geometry" />
        </mxCell>
        <mxCell id="1Cvh_RMkwMr6RXCInBIu-2" value="NEW USER?" style="rhombus;whiteSpace=wrap;html=1;fillColor=light-dark(#FFFFFF,#67AB9F);strokeColor=light-dark(#000000,#000000);fontColor=light-dark(#000000,#000000);" vertex="1" parent="1">
          <mxGeometry x="210" y="130" width="140" height="140" as="geometry" />
        </mxCell>
        <mxCell id="1Cvh_RMkwMr6RXCInBIu-9" value="" style="edgeStyle=orthogonalEdgeStyle;rounded=0;orthogonalLoop=1;jettySize=auto;html=1;" edge="1" parent="1" source="1Cvh_RMkwMr6RXCInBIu-3" target="1Cvh_RMkwMr6RXCInBIu-4">
          <mxGeometry relative="1" as="geometry" />
        </mxCell>
        <mxCell id="1Cvh_RMkwMr6RXCInBIu-19" value="" style="edgeStyle=orthogonalEdgeStyle;rounded=0;orthogonalLoop=1;jettySize=auto;html=1;" edge="1" parent="1" source="1Cvh_RMkwMr6RXCInBIu-3" target="1Cvh_RMkwMr6RXCInBIu-18">
          <mxGeometry relative="1" as="geometry" />
        </mxCell>
        <mxCell id="1Cvh_RMkwMr6RXCInBIu-3" value="RECOGNIZE&lt;div&gt;THE FACE&lt;/div&gt;" style="shape=parallelogram;perimeter=parallelogramPerimeter;whiteSpace=wrap;html=1;fixedSize=1;fillColor=light-dark(#FFFFFF,#FFFF66);fontColor=light-dark(#000000,#000000);" vertex="1" parent="1">
          <mxGeometry x="220" y="310" width="120" height="60" as="geometry" />
        </mxCell>
        <mxCell id="1Cvh_RMkwMr6RXCInBIu-10" value="" style="edgeStyle=orthogonalEdgeStyle;rounded=0;orthogonalLoop=1;jettySize=auto;html=1;" edge="1" parent="1" source="1Cvh_RMkwMr6RXCInBIu-4" target="1Cvh_RMkwMr6RXCInBIu-5">
          <mxGeometry relative="1" as="geometry" />
        </mxCell>
        <mxCell id="1Cvh_RMkwMr6RXCInBIu-4" value="FACE&amp;nbsp;&lt;div&gt;RECOGNIZED&lt;/div&gt;" style="rhombus;whiteSpace=wrap;html=1;fillColor=light-dark(#FFFFFF,#FFB366);fontColor=light-dark(#000000,#000000);" vertex="1" parent="1">
          <mxGeometry x="215" y="420" width="130" height="110" as="geometry" />
        </mxCell>
        <mxCell id="1Cvh_RMkwMr6RXCInBIu-11" value="" style="edgeStyle=orthogonalEdgeStyle;rounded=0;orthogonalLoop=1;jettySize=auto;html=1;" edge="1" parent="1" source="1Cvh_RMkwMr6RXCInBIu-5" target="1Cvh_RMkwMr6RXCInBIu-6">
          <mxGeometry relative="1" as="geometry" />
        </mxCell>
        <mxCell id="1Cvh_RMkwMr6RXCInBIu-5" value="Stored in csv file&amp;nbsp;&lt;div&gt;with Registration&lt;/div&gt;&lt;div&gt;Number &amp;amp; Date,&lt;/div&gt;&lt;div&gt;Time of Entry&lt;/div&gt;" style="shape=parallelogram;perimeter=parallelogramPerimeter;whiteSpace=wrap;html=1;fixedSize=1;fillColor=light-dark(#FFFFFF,#FF99CC);fontColor=light-dark(#000000,#000000);" vertex="1" parent="1">
          <mxGeometry x="205" y="580" width="150" height="70" as="geometry" />
        </mxCell>
        <mxCell id="1Cvh_RMkwMr6RXCInBIu-6" value="END" style="ellipse;whiteSpace=wrap;html=1;fillColor=light-dark(#FFFFFF,#CCFFFF);fontColor=light-dark(#000000,#000000);" vertex="1" parent="1">
          <mxGeometry x="220" y="700" width="120" height="80" as="geometry" />
        </mxCell>
        <mxCell id="1Cvh_RMkwMr6RXCInBIu-16" value="Give Your&amp;nbsp;&lt;div&gt;Photograph&lt;/div&gt;" style="whiteSpace=wrap;html=1;fillColor=light-dark(#FFFFFF,#FF9999);fontColor=light-dark(#000000,#000000);" vertex="1" parent="1">
          <mxGeometry x="500" y="170" width="120" height="60" as="geometry" />
        </mxCell>
        <mxCell id="1Cvh_RMkwMr6RXCInBIu-20" value="" style="edgeStyle=orthogonalEdgeStyle;rounded=0;orthogonalLoop=1;jettySize=auto;html=1;" edge="1" parent="1" source="1Cvh_RMkwMr6RXCInBIu-18" target="1Cvh_RMkwMr6RXCInBIu-16">
          <mxGeometry relative="1" as="geometry" />
        </mxCell>
        <mxCell id="1Cvh_RMkwMr6RXCInBIu-18" value="Store the Face Data&lt;div&gt;in folder on Your Name&lt;/div&gt;" style="whiteSpace=wrap;html=1;fillColor=light-dark(#FFFFFF,#CC99FF);fontColor=light-dark(#000000,#000000);" vertex="1" parent="1">
          <mxGeometry x="500" y="310" width="120" height="60" as="geometry" />
        </mxCell>
        <mxCell id="1Cvh_RMkwMr6RXCInBIu-24" value="" style="endArrow=classic;html=1;rounded=0;exitX=1;exitY=0.5;exitDx=0;exitDy=0;entryX=0.5;entryY=0;entryDx=0;entryDy=0;" edge="1" parent="1" source="1Cvh_RMkwMr6RXCInBIu-4" target="1Cvh_RMkwMr6RXCInBIu-16">
          <mxGeometry width="50" height="50" relative="1" as="geometry">
            <mxPoint x="370" y="430" as="sourcePoint" />
            <mxPoint x="560" y="160" as="targetPoint" />
            <Array as="points">
              <mxPoint x="710" y="470" />
              <mxPoint x="710" y="130" />
              <mxPoint x="560" y="130" />
            </Array>
          </mxGeometry>
        </mxCell>
        <mxCell id="1Cvh_RMkwMr6RXCInBIu-25" value="YES" style="text;html=1;align=center;verticalAlign=middle;resizable=0;points=[];autosize=1;strokeColor=none;fillColor=none;" vertex="1" parent="1">
          <mxGeometry x="205" y="538" width="50" height="30" as="geometry" />
        </mxCell>
        <mxCell id="1Cvh_RMkwMr6RXCInBIu-26" value="NO" style="text;html=1;align=center;verticalAlign=middle;resizable=0;points=[];autosize=1;strokeColor=none;fillColor=none;" vertex="1" parent="1">
          <mxGeometry x="210" y="388" width="40" height="30" as="geometry" />
        </mxCell>
        <mxCell id="1Cvh_RMkwMr6RXCInBIu-27" value="NO" style="text;html=1;align=center;verticalAlign=middle;resizable=0;points=[];autosize=1;strokeColor=none;fillColor=none;" vertex="1" parent="1">
          <mxGeometry x="480" y="438" width="40" height="30" as="geometry" />
        </mxCell>
        <mxCell id="1Cvh_RMkwMr6RXCInBIu-28" value="YES" style="text;html=1;align=center;verticalAlign=middle;resizable=0;points=[];autosize=1;strokeColor=none;fillColor=none;" vertex="1" parent="1">
          <mxGeometry x="385" y="148" width="50" height="30" as="geometry" />
        </mxCell>
      </root>
    </mxGraphModel>
  </diagram>
</mxfile>
